{"title":"Pretty.Little.Liars.S03E01-Preview.HDTV-Xvid-Junio-Tk2","uid":7320540,"size":31785663,"categoryP":"video","categoryS":"tv_shows","magnet":"?xt=urn:btih:14b9b0f613c5b5a90876cb5840cdbb66e6709387&amp;dn=Pretty.Little.Liars.S03E01-Preview.HDTV-Xvid-Junio-Tk2&amp;tr=udp%3A%2F%2Ftracker.openbittorrent.com%3A80&amp;tr=udp%3A%2F%2Fopen.demonii.com%3A1337&amp;tr=udp%3A%2F%2Ftracker.coppersurfer.tk%3A6969&amp;tr=udp%3A%2F%2Fexodus.desync.com%3A6969","seeders":0,"leechers":0,"uploader":"junio_tk2","files":-1,"time":1338606479,"description":"10 minutes of preview\n\n\nFormat                           : MPEG-4\nFormat profile                   : Base Media / Version 2\nCodec ID                         : mp42\nFile size                        : 30.3 MiB\nDuration                         : 10mn 28s\nOverall bit rate                 : 404 Kbps\n\n\nVideo\nID                               : 1\nFormat                           : AVC\nFormat/Info                      : Advanced Video Codec\nFormat profile                   : &lt;a class=&quot;__cf_email__&quot; href=&quot;/cdn-cgi/l/email-protection&quot; data-cfemail=&quot;13517260767f7a7d76535f203d23&quot;&gt;[email&amp;#160;protected]&lt;/a&gt;&lt;script cf-hash='f9e31' type=&quot;text/javascript&quot;&gt;\n/* &lt;![CDATA[ */!function(){try{var t=&quot;currentScript&quot;in document?document.currentScript:function(){for(var t=document.getElementsByTagName(&quot;script&quot;),e=t.length;e--;)if(t[e].getAttribute(&quot;cf-hash&quot;))return t[e]}();if(t&amp;&amp;t.previousSibling){var e,r,n,i,c=t.previousSibling,a=c.getAttribute(&quot;data-cfemail&quot;);if(a){for(e=&quot;&quot;,r=parseInt(a.substr(0,2),16),n=2;a.length-n;n+=2)i=parseInt(a.substr(n,2),16)^r,e+=String.fromCharCode(i);e=document.createTextNode(e),c.parentNode.replaceChild(e,c)}}}catch(u){}}();/* ]]&gt; */&lt;/script&gt;\nFormat settings, CABAC           : No\nFormat settings, ReFrames        : 1 frame\nFormat settings, GOP             : M=1, N=39\nCodec ID                         : avc1\nCodec ID/Info                    : Advanced Video Coding\nDuration                         : 10mn 28s\nBit rate mode                    : Variable\nBit rate                         : 307 Kbps\nMaximum bit rate                 : 2 024 Kbps\nWidth                            : 636 pixels\nHeight                           : 360 pixels\nDisplay aspect ratio             : 16:9\nFrame rate mode                  : Constant\nFrame rate                       : 23.976 fps\nColor space                      : YUV\nChroma subsampling               : 4:2:0\nBit depth                        : 8 bits\nScan type                        : Progressive\nBits/(Pixel*Frame)               : 0.056\nStream size                      : 23.0 MiB (76%)\nTagged date                      : UTC 2012-05-31 14:41:16\n\nAudio\nID                               : 2\nFormat                           : AAC\nFormat/Info                      : Advanced Audio Codec\nFormat profile                   : LC\nCodec ID                         : 40\nDuration                         : 10mn 28s\nBit rate mode                    : Variable\nBit rate                         : 96.0 Kbps\nMaximum bit rate                 : 127 Kbps\nChannel(s)                       : 2 channels\nChannel positions                : Front: L R\nSampling rate                    : 44.1 KHz\nCompression mode                 : Lossy\nStream size                      : 7.13 MiB (24%)\n\n","torrent":{"xt":"urn:btih:14b9b0f613c5b5a90876cb5840cdbb66e6709387","amp;dn":"Pretty.Little.Liars.S03E01-Preview.HDTV-Xvid-Junio-Tk2","amp;tr":["udp%3A%2F%2Ftracker.openbittorrent.com%3A80","udp%3A%2F%2Fopen.demonii.com%3A1337","udp%3A%2F%2Ftracker.coppersurfer.tk%3A6969","udp%3A%2F%2Fexodus.desync.com%3A6969"],"infoHash":"14b9b0f613c5b5a90876cb5840cdbb66e6709387","infoHashBuffer":{"type":"Buffer","data":[20,185,176,246,19,197,181,169,8,118,203,88,64,205,187,102,230,112,147,135]},"announce":[],"urlList":[]}}